<svg xmlns="http://www.w3.org/2000/svg" viewBox="0 -0.5 48 48" shape-rendering="crispEdges">
<metadata>Made with Pixels to Svg https://codepen.io/shshaw/pen/XbxvNj</metadata>
<path stroke="#3c0101" d="M0 0h2M46 0h2M0 1h2M46 1h2M0 2h2M46 2h2M0 3h2M46 3h2M0 4h2M46 4h2M0 5h2M46 5h2M0 6h2M8 6h16M36 6h4M46 6h2M0 7h2M8 7h16M36 7h4M46 7h2M0 8h2M8 8h2M16 8h2M38 8h2M46 8h2M0 9h2M8 9h2M16 9h2M38 9h2M46 9h2M0 10h2M8 10h2M16 10h2M46 10h2M0 11h2M8 11h2M16 11h2M46 11h2M0 12h2M16 12h2M46 12h2M0 13h2M16 13h2M46 13h2M0 14h2M16 14h2M46 14h2M0 15h2M16 15h2M46 15h2M0 16h2M46 16h2M0 17h2M46 17h2M0 18h2M46 18h2M0 19h2M46 19h2M0 20h2M46 20h2M0 21h2M46 21h2M0 22h2M46 22h2M0 23h2M46 23h2M0 24h2M38 24h2M46 24h2M0 25h2M38 25h2M46 25h2M0 26h2M8 26h2M38 26h2M46 26h2M0 27h2M8 27h2M38 27h2M46 27h2M0 28h2M38 28h2M46 28h2M0 29h2M38 29h2M46 29h2M0 30h2M34 30h6M46 30h2M0 31h2M34 31h6M46 31h2M0 32h2M38 32h2M46 32h2M0 33h2M38 33h2M46 33h2M0 34h2M38 34h2M46 34h2M0 35h2M38 35h2M46 35h2M0 36h2M30 36h10M46 36h2M0 37h2M30 37h10M46 37h2M0 38h2M46 38h2M0 39h2M46 39h2M0 40h2M46 40h2M0 41h2M46 41h2M0 42h48M0 43h48M0 44h48M0 45h48M0 46h48M0 47h48" />
<path stroke="#995c2d" d="M2 0h44M2 1h44M2 2h44M2 3h44M2 4h24M34 4h12M2 5h24M34 5h12M2 6h6M40 6h6M2 7h6M40 7h6M2 8h2M6 8h2M40 8h6M2 9h2M6 9h2M40 9h6M40 10h6M40 11h6M40 12h6M40 13h6M40 14h6M40 15h6M44 16h2M44 17h2M2 18h2M2 19h2M2 20h2M2 21h2M2 22h4M44 22h2M2 23h4M44 23h2M2 24h6M40 24h6M2 25h6M40 25h6M2 26h6M40 26h6M2 27h6M40 27h6M2 28h6M40 28h6M2 29h6M40 29h6M40 30h6M40 31h6M40 32h6M40 33h6M2 34h2M40 34h6M2 35h2M40 35h6M2 36h4M40 36h6M2 37h4M40 37h6M2 38h8M26 38h20M2 39h8M26 39h20M2 40h44M2 41h44" />
<path stroke="#000000" d="M26 4h8M26 5h8M24 6h2M34 6h2M24 7h2M34 7h2M4 8h2M22 8h2M36 8h2M4 9h2M22 9h2M36 9h2M2 10h2M6 10h2M20 10h2M38 10h2M2 11h2M6 11h2M20 11h2M38 11h2M2 12h2M8 12h4M20 12h2M30 12h2M38 12h2M2 13h2M8 13h4M20 13h2M30 13h2M38 13h2M2 14h2M12 14h4M18 14h2M30 14h2M38 14h2M2 15h2M12 15h4M18 15h2M30 15h2M38 15h2M2 16h2M16 16h4M40 16h4M2 17h2M16 17h4M40 17h4M4 18h2M18 18h2M44 18h2M4 19h2M18 19h2M44 19h2M4 20h2M18 20h2M34 20h2M44 20h2M4 21h2M18 21h2M34 21h2M44 21h2M6 22h2M36 22h8M6 23h2M36 23h8M8 24h2M32 24h4M8 25h2M32 25h4M10 26h2M32 26h2M10 27h2M32 27h2M8 28h2M32 28h2M8 29h2M32 29h2M2 30h6M32 30h2M2 31h6M32 31h2M2 32h2M32 32h2M2 33h2M32 33h2M4 34h2M30 34h2M4 35h2M30 35h2M6 36h4M26 36h4M6 37h4M26 37h4M10 38h16M10 39h16" />
<path stroke="#b9aca5" d="M26 6h2M32 6h2M26 7h2M32 7h2M24 8h2M34 8h2M24 9h2M34 9h2M4 10h2M22 10h2M36 10h2M4 11h2M22 11h2M36 11h2M4 12h4M22 12h2M4 13h4M22 13h2M4 14h4M10 14h2M20 14h4M4 15h4M10 15h2M20 15h4M4 16h6M14 16h2M20 16h4M4 17h6M14 17h2M20 17h4M6 18h2M10 18h2M16 18h2M20 18h4M6 19h2M10 19h2M16 19h2M20 19h4M6 20h2M22 20h2M6 21h2M22 21h2M8 22h2M20 22h6M34 22h2M8 23h2M20 23h6M34 23h2M10 24h2M20 24h8M10 25h2M20 25h8M12 26h2M18 26h14M12 27h2M18 27h14M14 28h8M14 29h8M8 30h12M8 31h12M4 32h14M30 32h2M4 33h14M30 33h2M6 34h10M28 34h2M6 35h10M28 35h2M10 36h6M24 36h2M10 37h6M24 37h2" />
<path stroke="#ffffff" d="M28 6h4M28 7h4M26 8h8M26 9h8M24 10h12M24 11h12M24 12h6M32 12h6M24 13h6M32 13h6M8 14h2M24 14h6M32 14h4M8 15h2M24 15h6M32 15h4M10 16h4M24 16h10M10 17h4M24 17h10M8 18h2M12 18h4M24 18h10M8 19h2M12 19h4M24 19h10M8 20h10M24 20h10M8 21h10M24 21h10M10 22h8M26 22h8M10 23h8M26 23h8M12 24h8M12 25h8M14 26h4M14 27h4M22 28h10M22 29h10M20 30h12M20 31h12M18 32h12M18 33h12M16 34h12M16 35h12M16 36h8M16 37h8" />
<path stroke="#722712" d="M10 8h6M18 8h4M10 9h6M18 9h4M10 10h6M18 10h2M10 11h6M18 11h2M12 12h4M18 12h2M12 13h4M18 13h2M36 24h2M36 25h2M34 26h4M34 27h4M34 28h4M34 29h4M34 32h4M34 33h4M32 34h6M32 35h6" />
<path stroke="#ff8c33" d="M36 14h2M36 15h2M36 16h2M36 17h2M36 18h6M36 19h6M38 20h6M38 21h6" />
<path stroke="#c73107" d="M34 16h2M38 16h2M34 17h2M38 17h2M34 18h2M42 18h2M34 19h2M42 19h2M36 20h2M36 21h2" />
<path stroke="#826c65" d="M20 20h2M20 21h2M18 22h2M18 23h2M28 24h4M28 25h4M10 28h4M10 29h4" />
</svg>