<svg xmlns="http://www.w3.org/2000/svg" viewBox="0 -0.5 22 10" shape-rendering="crispEdges">
<metadata>Made with Pixels to Svg https://codepen.io/shshaw/pen/XbxvNj</metadata>
<path stroke="#000000" d="M1 1h20M0 2h1M21 2h1M0 3h1M21 3h1M0 4h1M21 4h1M1 5h20M5 6h1M16 6h1M0 7h22M0 8h1M21 8h1M0 9h1M21 9h1" />
<path stroke="#ffb28b" d="M1 2h16" />
<path stroke="#7d001b" d="M17 2h4M16 3h5M1 4h20" />
<path stroke="#da3824" d="M1 3h15" />
<path stroke="#995c2d" d="M6 6h1M11 6h5M19 8h2M1 9h2M13 9h8" />
<path stroke="#ccac6f" d="M7 6h4M1 8h1M16 8h3M3 9h10" />
<path stroke="#ecdeb0" d="M2 8h14" />
</svg>