<svg xmlns="http://www.w3.org/2000/svg" viewBox="0 -0.5 32 41" shape-rendering="crispEdges">
<metadata>Made with Pixels to Svg https://codepen.io/shshaw/pen/XbxvNj</metadata>
<path stroke="#3c0101" d="M14 1h4M12 2h2M18 2h2M11 3h1M20 3h1M10 4h1M21 4h1M2 5h5M10 5h1M21 5h1M25 5h5M1 6h1M7 6h1M10 6h1M21 6h1M24 6h1M30 6h1M0 7h1M8 7h1M10 7h1M21 7h1M23 7h1M31 7h1M0 8h1M9 8h2M14 8h4M21 8h2M31 8h1M1 9h1M4 9h1M10 9h1M13 9h1M18 9h1M21 9h1M27 9h1M30 9h1M2 10h2M7 10h1M11 10h1M13 10h1M18 10h1M20 10h1M24 10h1M28 10h2M3 11h1M6 11h1M11 11h4M17 11h4M25 11h1M28 11h1M4 12h2M11 12h1M14 12h1M17 12h1M20 12h1M26 12h2M5 13h1M10 13h1M15 13h2M21 13h1M26 13h1M6 14h1M10 14h1M21 14h1M25 14h1M7 15h3M22 15h3M9 16h1M22 16h1M9 17h1M22 17h1M9 18h2M21 18h2M9 19h1M11 19h2M19 19h2M22 19h1M9 20h1M12 20h3M17 20h3M22 20h1M9 21h1M12 21h1M15 21h2M19 21h1M22 21h1M7 22h2M12 22h1M19 22h1M23 22h2M6 23h1M13 23h1M18 23h1M25 23h1M1 24h30M1 25h1M30 25h1M1 26h1M30 26h1M1 27h1M7 27h18M30 27h1M1 28h1M7 28h1M12 28h1M15 28h1M17 28h1M21 28h1M24 28h1M30 28h1M1 29h1M7 29h18M30 29h1M1 30h1M30 30h1M1 31h1M30 31h1M1 32h30M2 33h1M5 33h1M9 33h1M15 33h1M20 33h1M24 33h1M27 33h1M29 33h1M2 34h1M5 34h1M9 34h1M15 34h1M20 34h1M24 34h1M27 34h1M29 34h1M2 35h1M5 35h1M9 35h1M15 35h1M20 35h1M24 35h1M27 35h1M29 35h1M2 36h1M5 36h1M9 36h1M15 36h1M20 36h1M24 36h1M27 36h1M29 36h1M1 37h30M1 38h1M30 38h1M1 39h1M30 39h1" />
<path stroke="#742b17" d="M14 2h1M17 2h1M12 3h1M19 3h1M11 4h1M20 4h1M20 5h1M2 6h1M6 6h1M20 6h1M25 6h1M29 6h1M7 7h1M20 7h1M24 7h1M29 7h2M1 8h1M8 8h1M13 8h1M18 8h3M23 8h1M28 8h3M2 9h1M9 9h1M11 9h1M19 9h2M22 9h1M28 9h2M10 10h1M12 10h1M19 10h1M21 10h2M26 10h2M4 11h1M9 11h2M21 11h2M26 11h2M8 12h3M12 12h2M18 12h2M21 12h2M25 12h1M6 13h4M11 13h2M18 13h3M22 13h4M7 14h3M11 14h1M19 14h2M22 14h3M10 15h1M19 15h3M10 16h1M19 16h3M10 17h2M18 17h4M11 18h2M17 18h4M13 19h6M15 20h2M8 28h4M13 28h2M16 28h1M18 28h3M22 28h2M3 33h2M6 33h3M10 33h5M16 33h4M21 33h3M25 33h2M28 33h1M4 34h1M8 34h1M14 34h1M19 34h1M23 34h1M25 34h2M28 34h1M4 35h1M8 35h1M14 35h1M19 35h1M23 35h1M25 35h2M28 35h1M3 36h2M6 36h3M10 36h5M16 36h4M21 36h3M25 36h2M28 36h1" />
<path stroke="#995c2d" d="M15 2h2M13 3h6M12 4h1M14 4h4M19 4h1M11 5h1M15 5h2M3 6h3M11 6h1M15 6h2M26 6h3M1 7h6M11 7h2M14 7h4M19 7h1M25 7h4M2 8h6M11 8h2M24 8h4M3 9h1M5 9h4M12 9h1M14 9h1M17 9h1M23 9h4M4 10h3M8 10h2M23 10h1M25 10h1M5 11h1M7 11h2M23 11h2M6 12h2M23 12h2M13 13h2M17 13h1M12 14h7M11 15h8M11 16h8M12 17h6M13 18h4M10 19h1M21 19h1M11 20h1M20 20h2M11 21h1M21 21h1M9 22h1M11 22h1M21 22h2M12 23h1M24 23h1M28 25h2M7 26h18M28 26h2M28 27h2M28 28h2M2 29h5M25 29h5M2 30h5M25 30h5M2 31h28M3 34h1M6 34h2M10 34h4M16 34h3M21 34h2M3 35h1M6 35h2M10 35h4M16 35h3M21 35h2M23 38h7M2 39h28" />
<path stroke="#ccac6f" d="M13 4h1M18 4h1M12 5h1M14 5h1M17 5h1M19 5h1M12 6h1M14 6h1M17 6h1M19 6h1M13 7h1M18 7h1M15 9h2M14 10h4M15 11h2M15 12h2M10 20h1M10 21h1M20 21h1M10 22h1M20 22h1M7 23h5M19 23h5M2 25h26M2 26h5M25 26h3M2 27h5M25 27h3M2 28h5M25 28h3M7 30h18M2 38h21" />
<path stroke="#ecdeb0" d="M13 5h1M18 5h1M13 6h1M18 6h1" />
</svg>