<svg xmlns="http://www.w3.org/2000/svg" viewBox="0 -0.5 16 48" shape-rendering="crispEdges">
<metadata>Made with Pixels to Svg https://codepen.io/shshaw/pen/XbxvNj</metadata>
<path stroke="#000000" d="M0 0h16M0 1h1M15 1h1M0 2h1M15 2h1M0 3h1M15 3h1M0 4h1M15 4h1M0 5h2M14 5h2M0 6h1M2 6h1M13 6h1M15 6h1M0 7h1M3 7h10M15 7h1M0 8h1M15 8h1M0 9h1M15 9h1M0 10h1M15 10h1M0 11h1M15 11h1M0 12h1M15 12h1M0 13h1M15 13h1M0 14h1M15 14h1M0 15h1M15 15h1M0 16h1M15 16h1M0 17h1M15 17h1M0 18h1M15 18h1M0 19h1M15 19h1M0 20h1M15 20h1M0 21h1M15 21h1M0 22h4M8 22h4M15 22h1M0 23h1M4 23h4M12 23h4M0 24h1M15 24h1M0 25h1M15 25h1M0 26h1M15 26h1M0 27h1M15 27h1M0 28h1M15 28h1M0 29h1M15 29h1M0 30h1M15 30h1M0 31h1M15 31h1M0 32h1M15 32h1M0 33h1M15 33h1M0 34h1M15 34h1M0 35h1M15 35h1M0 36h1M15 36h1M0 37h1M15 37h1M0 38h1M15 38h1M0 39h1M15 39h1M0 40h1M3 40h10M15 40h1M0 41h1M2 41h1M13 41h1M15 41h1M0 42h2M14 42h2M0 43h1M15 43h1M0 44h1M15 44h1M0 45h1M15 45h1M0 46h1M15 46h1M0 47h16" />
<path stroke="#ecdeb0" d="M1 1h14M1 2h14M1 3h1M1 4h1M3 41h9M2 42h1M1 43h1M1 44h1" />
<path stroke="#ccac6f" d="M2 3h11M2 4h11M3 5h9M1 23h3M8 23h4M4 24h4M12 24h3M3 42h10M2 43h11M2 44h10" />
<path stroke="#995c2d" d="M13 3h2M13 4h2M2 5h1M12 5h2M3 6h10M1 7h1M1 8h1M13 8h1M1 9h1M3 9h2M6 9h3M10 9h2M13 9h1M1 10h1M3 10h2M6 10h3M10 10h2M13 10h1M1 11h1M3 11h2M6 11h3M10 11h2M13 11h1M1 12h1M3 12h2M6 12h3M10 12h2M13 12h1M1 13h1M3 13h2M6 13h3M10 13h2M13 13h1M1 14h1M3 14h2M6 14h3M10 14h2M13 14h1M1 15h1M3 15h2M6 15h3M10 15h2M13 15h1M1 16h1M3 16h2M6 16h3M10 16h2M13 16h1M1 17h1M3 17h2M6 17h3M10 17h2M13 17h1M1 18h1M3 18h2M6 18h3M10 18h2M13 18h1M1 19h1M3 19h2M6 19h3M10 19h2M13 19h1M1 20h1M3 20h2M6 20h3M10 20h2M13 20h1M4 21h1M6 21h3M10 21h2M13 21h1M13 22h1M1 24h1M3 24h1M8 24h1M10 24h2M1 25h1M3 25h2M6 25h3M10 25h2M13 25h1M1 26h1M3 26h2M6 26h3M10 26h2M13 26h1M1 27h1M3 27h2M6 27h3M10 27h2M13 27h1M1 28h1M3 28h2M6 28h3M10 28h2M13 28h1M1 29h1M3 29h2M6 29h3M10 29h2M13 29h1M1 30h1M3 30h2M6 30h3M10 30h2M13 30h1M1 31h1M3 31h2M6 31h3M10 31h2M13 31h1M1 32h1M3 32h2M6 32h3M10 32h2M13 32h1M1 33h1M3 33h2M6 33h3M10 33h2M13 33h1M1 34h1M3 34h2M6 34h3M10 34h2M13 34h1M1 35h1M3 35h2M6 35h3M10 35h2M3 36h2M6 36h3M10 36h1M3 37h2M6 37h3M12 41h1M13 42h1M13 43h2M12 44h3M1 45h14M1 46h14" />
<path stroke="#742b17" d="M1 6h1M14 6h1M2 7h1M13 7h2M2 8h11M14 8h1M2 9h1M5 9h1M9 9h1M12 9h1M14 9h1M2 10h1M5 10h1M9 10h1M12 10h1M14 10h1M2 11h1M5 11h1M9 11h1M12 11h1M14 11h1M2 12h1M5 12h1M9 12h1M12 12h1M14 12h1M2 13h1M5 13h1M9 13h1M12 13h1M14 13h1M2 14h1M5 14h1M9 14h1M12 14h1M14 14h1M2 15h1M5 15h1M9 15h1M12 15h1M14 15h1M2 16h1M5 16h1M9 16h1M12 16h1M14 16h1M2 17h1M5 17h1M9 17h1M12 17h1M14 17h1M2 18h1M5 18h1M9 18h1M12 18h1M14 18h1M2 19h1M5 19h1M9 19h1M12 19h1M14 19h1M2 20h1M5 20h1M9 20h1M12 20h1M14 20h1M1 21h3M5 21h1M9 21h1M12 21h1M14 21h1M4 22h4M12 22h1M14 22h1M2 24h1M9 24h1M2 25h1M5 25h1M9 25h1M12 25h1M14 25h1M2 26h1M5 26h1M9 26h1M12 26h1M14 26h1M2 27h1M5 27h1M9 27h1M12 27h1M14 27h1M2 28h1M5 28h1M9 28h1M12 28h1M14 28h1M2 29h1M5 29h1M9 29h1M12 29h1M14 29h1M2 30h1M5 30h1M9 30h1M12 30h1M14 30h1M2 31h1M5 31h1M9 31h1M12 31h1M14 31h1M2 32h1M5 32h1M9 32h1M12 32h1M14 32h1M2 33h1M5 33h1M9 33h1M12 33h1M14 33h1M2 34h1M5 34h1M9 34h1M12 34h1M14 34h1M2 35h1M5 35h1M9 35h1M12 35h3M1 36h2M5 36h1M9 36h1M11 36h4M1 37h2M5 37h1M9 37h6M1 38h14M1 39h14M1 40h2M13 40h2M1 41h1M14 41h1" />
</svg>