<svg xmlns="http://www.w3.org/2000/svg" viewBox="0 -0.5 64 64" shape-rendering="crispEdges">
<metadata>Made with Pixels to Svg https://codepen.io/shshaw/pen/XbxvNj</metadata>
<path stroke="#ff0000" d="M44 12h5M42 13h9M41 14h4M48 14h4M41 15h2M50 15h2M40 16h3M50 16h3M40 17h2M51 17h2M40 18h2M51 18h2M40 19h2M51 19h2M40 20h2M51 20h2M40 21h13M40 22h13M40 23h13M40 24h5M48 24h5M40 25h5M48 25h5M40 26h6M47 26h6M40 27h6M47 27h6M40 28h6M47 28h6M40 29h6M47 29h6M40 30h6M47 30h6M40 31h13M40 32h13M40 33h13M40 34h13" />
<path stroke="#8f563b" d="M28 13h8M26 14h12M25 15h14M24 16h16M23 17h17M9 18h31M42 18h9M53 18h2M9 19h31M42 19h9M53 19h2M9 20h4M18 20h22M42 20h9M53 20h2M9 21h3M19 21h21M53 21h2M9 22h3M19 22h21M53 22h2M9 23h3M19 23h10M35 23h5M53 23h2M9 24h4M18 24h9M29 24h6M37 24h3M45 24h3M53 24h2M9 25h17M27 25h10M38 25h2M45 25h3M53 25h2M9 26h16M26 26h12M39 26h1M46 26h1M53 26h2M9 27h15M25 27h14M46 27h1M53 27h2M9 28h15M25 28h14M46 28h1M53 28h2M9 29h14M24 29h16M46 29h1M53 29h2M9 30h14M24 30h16M46 30h1M53 30h2M9 31h14M24 31h16M53 31h2M9 32h14M24 32h16M53 32h2M9 33h14M24 33h16M53 33h2M9 34h14M24 34h16M53 34h2M9 35h15M25 35h14M41 35h14M9 36h15M25 36h14M40 36h15M9 37h16M26 37h12M39 37h16M9 38h17M27 38h10M38 38h17M9 39h18M29 39h6M37 39h18M9 40h20M35 40h20M9 41h46M9 42h46M9 43h46M9 44h46M9 45h46M9 46h46M9 47h46" />
</svg>