<svg xmlns="http://www.w3.org/2000/svg" viewBox="0 -0.5 16 16" shape-rendering="crispEdges">
<metadata>Made with Pixels to Svg https://codepen.io/shshaw/pen/XbxvNj</metadata>
<path stroke="#000000" d="M0 0h16M0 5h4M7 5h2M12 5h4M2 6h1M6 6h1M9 6h1M13 6h1M1 7h1M5 7h1M10 7h1M14 7h1M0 8h1M4 8h8M15 8h1M2 10h12M0 11h2M14 11h2" />
<path stroke="#ccac6f" d="M0 1h15M0 2h3M0 3h1" />
<path stroke="#742b17" d="M15 1h1M14 2h2M12 3h4M0 4h16M4 5h3M9 5h3M5 6h1M12 6h1M4 7h1M13 7h1M3 8h1M12 8h1M14 8h1M2 9h2M8 9h8M1 10h1M14 10h2" />
<path stroke="#995c2d" d="M3 2h11M1 3h11M3 6h2M10 6h2M2 7h2M11 7h2M1 8h2M13 8h1M0 9h2M4 9h4M0 10h1" />
</svg>