<svg xmlns="http://www.w3.org/2000/svg" viewBox="0 -0.5 32 32" shape-rendering="crispEdges">
<metadata>Made with Pixels to Svg https://codepen.io/shshaw/pen/XbxvNj</metadata>
<path stroke="#aec0c7" d="M7 0h10M10 1h8M11 2h8M9 3h11M10 4h11M12 5h8M9 6h8M8 7h3M15 7h2M7 8h2M15 8h2M6 9h1M15 9h2M6 10h1M15 10h2M5 11h1M15 11h2M5 12h1M15 12h2M5 13h1M15 13h2M5 14h1M15 14h1M5 17h1M5 18h1M15 18h2M5 19h1M15 19h2M5 20h1M15 20h2M15 21h2M15 22h2M15 23h2M25 23h1M15 24h2M24 24h1M15 25h2M23 25h1M15 26h2M11 27h11M12 28h11M13 29h8M14 30h8M15 31h10" />
<path stroke="#59728b" d="M20 1h6M23 2h4M4 3h3M22 3h6M3 4h7M24 4h5M2 5h10M20 5h9M1 6h8M17 6h6M24 6h5M1 7h7M11 7h4M17 7h7M25 7h3M1 8h3M5 8h2M9 8h6M17 8h8M26 8h2M1 9h1M3 9h1M5 9h1M7 9h8M17 9h11M1 10h1M5 10h1M7 10h8M17 10h10M1 11h1M6 11h7M19 11h7M6 12h6M20 12h5M6 13h5M21 13h4M6 14h5M16 14h1M21 14h5M6 17h4M22 17h3M6 18h5M21 18h4M6 19h6M20 19h4M6 20h7M19 20h5M26 20h1M30 20h1M5 21h9M18 21h5M25 21h2M30 21h1M4 22h2M7 22h8M17 22h5M25 22h2M28 22h1M30 22h1M4 23h2M8 23h7M17 23h3M26 23h1M28 23h3M4 24h3M25 24h6M3 25h5M21 25h2M24 25h7M3 26h8M17 26h13M3 27h5M22 27h7M4 28h6M25 28h3M5 29h4M6 30h6" />
<path stroke="#2b3d58" d="M23 6h1M24 7h1M31 7h1M25 8h1M31 8h1M28 9h1M31 9h1M27 10h2M30 10h2M4 11h1M13 11h1M18 11h1M26 11h6M3 12h2M12 12h1M19 12h1M27 12h5M2 13h3M11 13h1M20 13h1M28 13h4M1 14h4M29 14h3M0 15h2M30 15h2M0 16h2M30 16h2M0 17h5M10 17h1M15 17h2M21 17h1M25 17h1M29 17h2M0 18h5M11 18h1M20 18h1M28 18h2M0 19h5M12 19h1M19 19h1M24 19h1M27 19h2M0 20h5M13 20h1M18 20h1M24 20h2M27 20h1M0 21h2M3 21h2M14 21h1M17 21h1M23 21h2M0 22h1M3 22h1M6 22h1M22 22h3M0 23h1M6 23h2M20 23h5M0 24h1M7 24h8M17 24h7M8 25h7M17 25h4M11 26h4" />
<path stroke="#000000" d="M14 11h1M17 11h1M13 12h2M17 12h2M12 13h1M14 13h1M17 13h1M19 13h1M11 14h1M14 14h1M17 14h1M20 14h1M11 17h1M14 17h1M17 17h1M20 17h1M12 18h1M14 18h1M17 18h1M19 18h1M13 19h2M17 19h2M14 20h1M17 20h1" />
<path stroke="#ff0000" d="M25 12h2M25 13h3M26 14h3M2 15h28M2 16h28M26 17h3M25 18h3M25 19h2" />
</svg>