<svg xmlns="http://www.w3.org/2000/svg" viewBox="0 -0.5 64 64" shape-rendering="crispEdges">
<metadata>Made with Pixels to Svg https://codepen.io/shshaw/pen/XbxvNj</metadata>
<path stroke="#8f563b" d="M28 13h8M26 14h12M25 15h14M24 16h16M23 17h18M9 18h32M52 18h3M9 19h32M51 19h4M9 20h4M18 20h22M51 20h4M9 21h3M19 21h21M50 21h5M9 22h3M19 22h20M49 22h6M9 23h3M19 23h10M35 23h4M49 23h6M9 24h4M18 24h9M29 24h6M37 24h2M53 24h2M9 25h17M27 25h10M38 25h1M53 25h2M9 26h16M26 26h12M52 26h3M9 27h15M25 27h14M40 27h1M52 27h3M9 28h15M25 28h14M40 28h6M51 28h4M9 29h14M24 29h16M41 29h4M50 29h5M9 30h14M24 30h16M41 30h4M50 30h5M9 31h14M24 31h16M41 31h4M49 31h6M9 32h14M24 32h16M41 32h3M48 32h7M9 33h14M24 33h16M41 33h3M48 33h7M9 34h14M24 34h16M41 34h2M47 34h8M9 35h15M25 35h14M40 35h3M46 35h9M9 36h15M25 36h14M40 36h3M45 36h10M9 37h16M26 37h12M39 37h4M45 37h10M9 38h17M27 38h10M38 38h17M9 39h18M29 39h6M37 39h18M9 40h20M35 40h20M9 41h46M9 42h46M9 43h46M9 44h46M9 45h46M9 46h46M9 47h46" />
<path stroke="#ff0000" d="M43 14h11M43 15h11M42 16h11M42 17h11M41 18h11M41 19h10M40 20h11M40 21h10M39 22h10M39 23h10M39 24h14M39 25h14M40 26h12M41 27h11M46 28h5M45 29h5M45 30h5M45 31h4M44 32h4M44 33h4M43 34h4M43 35h3M43 36h2M43 37h2" />
</svg>